<?xml version="1.0" standalone="no"?>
<!DOCTYPE svg PUBLIC "-//W3C//DTD SVG 20010904//EN"
 "http://www.w3.org/TR/2001/REC-SVG-20010904/DTD/svg10.dtd">
<svg version="1.0" xmlns="http://www.w3.org/2000/svg"
 width="502.000000pt" height="502.000000pt" viewBox="0 0 502.000000 502.000000"
 preserveAspectRatio="xMidYMid meet">
<metadata>
Created by potrace 1.11, written by Peter Selinger 2001-2013
</metadata>
<g transform="translate(0.000000,502.000000) scale(0.100000,-0.100000)"
fill="#000000" stroke="none">
<path d="M4580 3900 c-25 -9 -61 -23 -80 -31 -19 -9 -88 -35 -153 -59 -65 -24
-114 -46 -110 -49 4 -3 9 -15 11 -27 1 -11 16 -54 31 -94 28 -71 30 -90 11
-90 -4 0 -25 47 -45 105 l-37 104 -37 -15 c-20 -8 -72 -29 -116 -46 -44 -17
-86 -35 -92 -41 -7 -5 -13 -7 -13 -4 0 3 -26 -5 -57 -17 -52 -20 -58 -25 -55
-49 3 -31 -13 -36 -28 -7 -10 19 -11 19 -77 -6 -37 -14 -72 -28 -78 -32 -5 -4
-15 -7 -22 -8 -16 -3 -177 -66 -185 -73 -5 -5 16 -84 37 -133 5 -13 3 -18 -8
-18 -13 0 -20 13 -32 55 -1 6 -10 27 -18 47 l-16 38 -68 -26 c-37 -15 -76 -29
-85 -31 -10 -3 -18 -10 -18 -15 0 -5 -4 -7 -8 -4 -5 3 -44 -10 -88 -27 -62
-25 -79 -36 -76 -49 4 -21 -16 -24 -24 -4 -4 10 -44 -2 -167 -50 -133 -51
-163 -66 -165 -84 -2 -12 1 -26 6 -33 19 -25 23 -67 7 -73 -16 -7 -16 -53 0
-115 4 -17 1 -30 -9 -38 -8 -7 -13 -18 -11 -24 2 -7 6 -32 9 -57 3 -25 9 -64
12 -87 6 -39 5 -42 -28 -56 -73 -32 -90 -37 -99 -32 -5 4 -9 1 -9 -4 0 -20
-29 -11 -35 10 -4 11 -18 24 -32 30 -31 12 -36 11 -28 -1 10 -15 -15 -12 -31
5 -16 15 -10 65 8 65 5 0 6 5 3 10 -4 6 1 22 9 35 9 14 14 25 10 25 -4 0 -1 7
6 15 7 8 9 15 4 15 -5 0 -3 4 4 9 7 4 14 18 15 29 1 12 4 22 8 22 3 0 18 11
33 25 14 13 26 21 26 17 0 -4 9 10 20 31 20 38 28 93 11 83 -5 -4 -11 -2 -13
3 -4 12 -57 16 -83 6 -11 -4 -32 -11 -46 -17 -30 -11 -90 -63 -106 -92 -6 -10
-8 -27 -6 -36 6 -22 60 -47 97 -44 25 3 27 0 22 -19 -4 -12 -8 -26 -9 -32 -2
-5 -6 -16 -10 -22 -5 -7 -5 -13 0 -13 4 0 2 -4 -5 -9 -7 -4 -14 -18 -15 -29
-1 -12 -5 -22 -9 -22 -4 0 -5 -7 -2 -15 4 -8 1 -15 -6 -15 -6 0 -9 -4 -5 -9 3
-5 1 -12 -5 -16 -6 -4 -8 -11 -5 -16 4 -5 1 -9 -5 -9 -6 0 -9 -4 -5 -9 3 -5 1
-12 -5 -16 -6 -4 -8 -11 -5 -16 4 -5 -5 -4 -19 3 -14 6 -26 19 -26 29 0 18
-71 63 -84 54 -3 -3 -4 -2 -1 2 3 4 -7 19 -22 35 -15 15 -24 28 -20 28 8 0
-18 34 -50 65 -17 17 -23 34 -23 67 0 32 -8 56 -25 82 -14 20 -25 41 -25 45 0
5 -7 11 -15 15 -8 3 -15 12 -15 21 0 8 -7 15 -16 15 -8 0 -12 5 -9 10 3 6 -1
13 -9 16 -8 3 -18 14 -21 25 -4 11 -11 16 -17 13 -7 -4 -8 8 -2 37 12 68 7
100 -23 143 -49 69 -74 81 -161 80 -54 -1 -95 -8 -137 -24 -241 -91 -431 -361
-357 -506 11 -21 31 -49 44 -61 29 -27 91 -44 131 -36 27 5 29 4 23 -12 -5
-15 11 -36 76 -98 46 -43 91 -83 102 -89 10 -6 45 -10 77 -9 l59 1 0 -34 c0
-19 3 -41 6 -50 5 -13 -1 -16 -25 -16 -39 0 -39 -13 -1 -47 17 -14 30 -32 30
-39 0 -16 -26 -31 -65 -38 -16 -3 -33 -10 -39 -16 -15 -15 -4 -13 59 11 31 11
62 18 70 15 7 -2 19 2 25 10 16 18 51 19 44 0 -7 -18 93 -136 110 -130 17 6
33 -16 19 -25 -21 -13 -53 -93 -65 -160 -7 -39 -15 -71 -20 -71 -4 0 -16 10
-28 22 -11 12 -27 23 -35 24 -25 4 -17 -31 15 -61 21 -20 30 -37 28 -54 -2
-19 5 -31 32 -49 45 -30 49 -42 12 -42 -46 0 -122 -57 -150 -112 -42 -82 -29
-169 27 -183 50 -13 61 -14 61 -4 0 5 6 9 13 9 51 0 137 121 137 192 0 55 20
45 44 -23 13 -37 34 -69 67 -102 27 -26 49 -52 49 -58 0 -6 5 -7 10 -4 6 3 10
1 10 -5 0 -20 182 -211 225 -235 22 -12 58 -26 80 -30 22 -5 49 -10 60 -13 11
-2 61 -5 111 -6 50 -2 95 -6 101 -9 7 -4 14 -3 18 3 3 5 3 10 -2 10 -4 1 24
17 62 37 145 74 233 162 296 297 19 40 40 71 51 74 22 5 22 11 4 31 -10 11
-15 46 -17 110 -2 51 -9 104 -16 117 -6 13 -9 24 -7 24 3 0 -9 18 -26 40 -17
22 -29 40 -25 40 12 0 -42 48 -86 76 -42 27 -85 64 -75 64 3 0 -13 18 -34 40
-22 23 -40 48 -40 56 0 8 -4 13 -9 10 -7 -5 -45 74 -38 79 4 3 311 107 322
109 18 4 120 39 130 45 6 3 15 6 20 8 6 1 21 4 34 7 12 3 29 10 37 17 8 6 14
9 14 5 0 -5 71 18 135 43 39 16 360 122 385 127 34 7 34 8 32 73 -1 41 2 60
11 64 10 4 13 -9 13 -49 0 -29 2 -56 5 -59 3 -3 32 4 65 16 32 11 64 22 69 23
38 8 243 81 254 90 8 6 17 10 20 9 3 0 5 4 3 9 -2 6 7 8 23 4 13 -3 39 0 57 7
18 8 35 14 38 15 12 2 276 89 300 99 18 8 27 10 40 12 6 1 6 11 -1 29 -6 15
-13 36 -15 47 -2 11 -6 29 -8 40 -2 11 -25 85 -51 165 -26 80 -57 179 -70 220
-40 130 -116 353 -128 376 -12 20 -13 20 -57 4z"/>
<path d="M1313 2642 c-81 -32 -139 -60 -136 -65 4 -6 -1 -8 -10 -4 -10 4 -30
1 -45 -5 -15 -6 -29 -12 -32 -13 -7 -2 -61 -24 -80 -32 -8 -3 -17 -7 -20 -7
-25 -6 -106 -42 -111 -49 -3 -5 -9 -8 -13 -8 -13 2 -37 -3 -61 -14 -11 -4
-119 -46 -240 -93 -121 -46 -225 -88 -232 -94 -7 -5 -17 -7 -23 -3 -5 3 -10 1
-10 -4 0 -6 -3 -10 -8 -9 -8 3 -170 -57 -207 -76 -22 -11 -22 -14 -10 -42 45
-99 47 -118 30 -374 -3 -47 -8 -122 -10 -167 -4 -74 -7 -87 -39 -135 -49 -72
-47 -80 11 -56 15 6 30 12 33 13 104 32 157 49 164 53 5 3 201 69 435 148 234
78 440 148 456 155 17 6 35 13 40 13 6 1 71 21 145 46 129 42 189 77 174 101
-9 15 27 23 47 11 10 -7 27 -12 37 -12 16 0 18 8 15 74 -1 41 1 77 5 80 5 3 7
50 5 104 -4 95 -3 99 19 110 23 11 23 11 -2 6 -25 -5 -25 -5 -28 82 -2 54 -8
91 -16 99 -7 7 -12 32 -12 54 1 23 -2 41 -7 41 -4 0 -5 5 -1 12 4 6 3 8 -4 4
-6 -3 -13 -2 -17 4 -3 5 -19 10 -36 10 -16 0 -29 6 -30 13 0 6 -8 28 -17 48
l-17 36 -142 -55z"/>
<path d="M1683 2313 c-7 -2 -13 -9 -13 -15 0 -7 5 -7 13 1 8 6 16 8 19 5 3 -3
9 -1 13 5 6 11 -10 13 -32 4z"/>
</g>
</svg>
